<svg xmlns="http://www.w3.org/2000/svg" xmlns:xlink="http://www.w3.org/1999/xlink" width="500" zoomAndPan="magnify" viewBox="0 0 375 374.999991" height="500" preserveAspectRatio="xMidYMid meet" version="1.0"><defs><g/><clipPath id="e28c70cc27"><path d="M 29.105469 97.015625 L 67.359375 97.015625 L 67.359375 135.269531 L 29.105469 135.269531 Z M 29.105469 97.015625 " clip-rule="nonzero"/></clipPath><clipPath id="70737ff747"><path d="M 70.40625 97.015625 L 108.660156 97.015625 L 108.660156 135.269531 L 70.40625 135.269531 Z M 70.40625 97.015625 " clip-rule="nonzero"/></clipPath><clipPath id="6cca1a1062"><path d="M 111.660156 97.015625 L 149.914062 97.015625 L 149.914062 135.269531 L 111.660156 135.269531 Z M 111.660156 97.015625 " clip-rule="nonzero"/></clipPath><clipPath id="129026c32a"><path d="M 152.914062 97.015625 L 191.164062 97.015625 L 191.164062 135.269531 L 152.914062 135.269531 Z M 152.914062 97.015625 " clip-rule="nonzero"/></clipPath><clipPath id="774c97e7c9"><path d="M 194.164062 97.015625 L 232.417969 97.015625 L 232.417969 135.269531 L 194.164062 135.269531 Z M 194.164062 97.015625 " clip-rule="nonzero"/></clipPath><clipPath id="5c1e0be548"><path d="M 235.46875 97.015625 L 273.71875 97.015625 L 273.71875 135.269531 L 235.46875 135.269531 Z M 235.46875 97.015625 " clip-rule="nonzero"/></clipPath><clipPath id="ddfa495562"><path d="M 276.71875 97.015625 L 314.972656 97.015625 L 314.972656 135.269531 L 276.71875 135.269531 Z M 276.71875 97.015625 " clip-rule="nonzero"/></clipPath><clipPath id="e928ae3e93"><path d="M 317.972656 97.015625 L 356.226562 97.015625 L 356.226562 135.269531 L 317.972656 135.269531 Z M 317.972656 97.015625 " clip-rule="nonzero"/></clipPath><clipPath id="fe436f5570"><path d="M 29.105469 138.714844 L 67.359375 138.714844 L 67.359375 176.96875 L 29.105469 176.96875 Z M 29.105469 138.714844 " clip-rule="nonzero"/></clipPath><clipPath id="674568ebc3"><path d="M 70.40625 138.714844 L 108.660156 138.714844 L 108.660156 176.96875 L 70.40625 176.96875 Z M 70.40625 138.714844 " clip-rule="nonzero"/></clipPath><clipPath id="979129270b"><path d="M 111.660156 138.714844 L 149.914062 138.714844 L 149.914062 176.96875 L 111.660156 176.96875 Z M 111.660156 138.714844 " clip-rule="nonzero"/></clipPath><clipPath id="053c9e91d4"><path d="M 152.914062 138.714844 L 191.164062 138.714844 L 191.164062 176.96875 L 152.914062 176.96875 Z M 152.914062 138.714844 " clip-rule="nonzero"/></clipPath><clipPath id="5c647e3838"><path d="M 194.164062 138.714844 L 232.417969 138.714844 L 232.417969 176.96875 L 194.164062 176.96875 Z M 194.164062 138.714844 " clip-rule="nonzero"/></clipPath><clipPath id="c7cd8cc81e"><path d="M 235.46875 138.714844 L 273.71875 138.714844 L 273.71875 176.96875 L 235.46875 176.96875 Z M 235.46875 138.714844 " clip-rule="nonzero"/></clipPath><clipPath id="5fb14683ad"><path d="M 276.71875 138.714844 L 314.972656 138.714844 L 314.972656 176.96875 L 276.71875 176.96875 Z M 276.71875 138.714844 " clip-rule="nonzero"/></clipPath></defs><g clip-path="url(#e28c70cc27)"><path fill="#3c6ca8" d="M 29.105469 97.015625 L 67.359375 97.015625 L 67.359375 135.269531 L 29.105469 135.269531 Z M 29.105469 97.015625 " fill-opacity="1" fill-rule="nonzero"/></g><g clip-path="url(#70737ff747)"><path fill="#3c6ca8" d="M 70.40625 97.015625 L 108.660156 97.015625 L 108.660156 135.269531 L 70.40625 135.269531 Z M 70.40625 97.015625 " fill-opacity="1" fill-rule="nonzero"/></g><g clip-path="url(#6cca1a1062)"><path fill="#3c6ca8" d="M 111.660156 97.015625 L 149.914062 97.015625 L 149.914062 135.269531 L 111.660156 135.269531 Z M 111.660156 97.015625 " fill-opacity="1" fill-rule="nonzero"/></g><g clip-path="url(#129026c32a)"><path fill="#3c6ca8" d="M 152.914062 97.015625 L 191.164062 97.015625 L 191.164062 135.269531 L 152.914062 135.269531 Z M 152.914062 97.015625 " fill-opacity="1" fill-rule="nonzero"/></g><g clip-path="url(#774c97e7c9)"><path fill="#3c6ca8" d="M 194.164062 97.015625 L 232.417969 97.015625 L 232.417969 135.269531 L 194.164062 135.269531 Z M 194.164062 97.015625 " fill-opacity="1" fill-rule="nonzero"/></g><g clip-path="url(#5c1e0be548)"><path fill="#3c6ca8" d="M 235.46875 97.015625 L 273.71875 97.015625 L 273.71875 135.269531 L 235.46875 135.269531 Z M 235.46875 97.015625 " fill-opacity="1" fill-rule="nonzero"/></g><g clip-path="url(#ddfa495562)"><path fill="#3c6ca8" d="M 276.71875 97.015625 L 314.972656 97.015625 L 314.972656 135.269531 L 276.71875 135.269531 Z M 276.71875 97.015625 " fill-opacity="1" fill-rule="nonzero"/></g><g clip-path="url(#e928ae3e93)"><path fill="#3c6ca8" d="M 317.972656 97.015625 L 356.226562 97.015625 L 356.226562 135.269531 L 317.972656 135.269531 Z M 317.972656 97.015625 " fill-opacity="1" fill-rule="nonzero"/></g><g clip-path="url(#fe436f5570)"><path fill="#3c6ca8" d="M 29.105469 138.714844 L 67.359375 138.714844 L 67.359375 176.96875 L 29.105469 176.96875 Z M 29.105469 138.714844 " fill-opacity="1" fill-rule="nonzero"/></g><g clip-path="url(#674568ebc3)"><path fill="#3c6ca8" d="M 70.40625 138.714844 L 108.660156 138.714844 L 108.660156 176.96875 L 70.40625 176.96875 Z M 70.40625 138.714844 " fill-opacity="1" fill-rule="nonzero"/></g><g clip-path="url(#979129270b)"><path fill="#3c6ca8" d="M 111.660156 138.714844 L 149.914062 138.714844 L 149.914062 176.96875 L 111.660156 176.96875 Z M 111.660156 138.714844 " fill-opacity="1" fill-rule="nonzero"/></g><g clip-path="url(#053c9e91d4)"><path fill="#3c6ca8" d="M 152.914062 138.714844 L 191.164062 138.714844 L 191.164062 176.96875 L 152.914062 176.96875 Z M 152.914062 138.714844 " fill-opacity="1" fill-rule="nonzero"/></g><g clip-path="url(#5c647e3838)"><path fill="#3c6ca8" d="M 194.164062 138.714844 L 232.417969 138.714844 L 232.417969 176.96875 L 194.164062 176.96875 Z M 194.164062 138.714844 " fill-opacity="1" fill-rule="nonzero"/></g><g clip-path="url(#c7cd8cc81e)"><path fill="#3c6ca8" d="M 235.46875 138.714844 L 273.71875 138.714844 L 273.71875 176.96875 L 235.46875 176.96875 Z M 235.46875 138.714844 " fill-opacity="1" fill-rule="nonzero"/></g><g clip-path="url(#5fb14683ad)"><path fill="#3c6ca8" d="M 276.71875 138.714844 L 314.972656 138.714844 L 314.972656 176.96875 L 276.71875 176.96875 Z M 276.71875 138.714844 " fill-opacity="1" fill-rule="nonzero"/></g><g fill="#ffffff" fill-opacity="1"><g transform="translate(324.016565, 131.143117)"><g><path d="M 9.359375 -28.5625 L 9.359375 -4.734375 L 22.1875 -4.734375 L 22.1875 0 L 3.71875 0 L 3.71875 -28.5625 Z M 9.359375 -28.5625 "/></g></g></g><g fill="#ffffff" fill-opacity="1"><g transform="translate(36.688288, 131.143117)"><g><path d="M 21.8125 -28.5625 L 21.8125 -23.828125 L 9.359375 -23.828125 L 9.359375 -16.265625 L 20.671875 -16.265625 L 20.671875 -11.609375 L 9.359375 -11.609375 L 9.359375 0 L 3.71875 0 L 3.71875 -28.5625 Z M 21.8125 -28.5625 "/></g></g></g><g fill="#ffffff" fill-opacity="1"><g transform="translate(73.977679, 131.143117)"><g><path d="M 15.5625 0.40625 C 12.945312 0.40625 10.640625 -0.125 8.640625 -1.1875 C 6.640625 -2.257812 5.070312 -3.890625 3.9375 -6.078125 C 2.8125 -8.273438 2.25 -11.007812 2.25 -14.28125 C 2.25 -17.550781 2.8125 -20.28125 3.9375 -22.46875 C 5.070312 -24.664062 6.640625 -26.296875 8.640625 -27.359375 C 10.640625 -28.429688 12.945312 -28.96875 15.5625 -28.96875 C 18.1875 -28.96875 20.492188 -28.4375 22.484375 -27.375 C 24.472656 -26.3125 26.03125 -24.679688 27.15625 -22.484375 C 28.28125 -20.285156 28.84375 -17.550781 28.84375 -14.28125 C 28.84375 -11.007812 28.28125 -8.273438 27.15625 -6.078125 C 26.03125 -3.878906 24.472656 -2.25 22.484375 -1.1875 C 20.492188 -0.125 18.1875 0.40625 15.5625 0.40625 Z M 15.5625 -4.5 C 17.988281 -4.5 19.835938 -5.273438 21.109375 -6.828125 C 22.390625 -8.378906 23.03125 -10.863281 23.03125 -14.28125 C 23.03125 -17.6875 22.390625 -20.171875 21.109375 -21.734375 C 19.835938 -23.296875 17.988281 -24.078125 15.5625 -24.078125 C 13.132812 -24.078125 11.273438 -23.296875 9.984375 -21.734375 C 8.703125 -20.171875 8.0625 -17.6875 8.0625 -14.28125 C 8.0625 -10.863281 8.703125 -8.378906 9.984375 -6.828125 C 11.273438 -5.273438 13.132812 -4.5 15.5625 -4.5 Z M 15.5625 -4.5 "/></g></g></g><g fill="#ffffff" fill-opacity="1"><g transform="translate(115.230055, 131.143117)"><g><path d="M 15.5625 0.40625 C 12.945312 0.40625 10.640625 -0.125 8.640625 -1.1875 C 6.640625 -2.257812 5.070312 -3.890625 3.9375 -6.078125 C 2.8125 -8.273438 2.25 -11.007812 2.25 -14.28125 C 2.25 -17.550781 2.8125 -20.28125 3.9375 -22.46875 C 5.070312 -24.664062 6.640625 -26.296875 8.640625 -27.359375 C 10.640625 -28.429688 12.945312 -28.96875 15.5625 -28.96875 C 18.1875 -28.96875 20.492188 -28.4375 22.484375 -27.375 C 24.472656 -26.3125 26.03125 -24.679688 27.15625 -22.484375 C 28.28125 -20.285156 28.84375 -17.550781 28.84375 -14.28125 C 28.84375 -11.007812 28.28125 -8.273438 27.15625 -6.078125 C 26.03125 -3.878906 24.472656 -2.25 22.484375 -1.1875 C 20.492188 -0.125 18.1875 0.40625 15.5625 0.40625 Z M 15.5625 -4.5 C 17.988281 -4.5 19.835938 -5.273438 21.109375 -6.828125 C 22.390625 -8.378906 23.03125 -10.863281 23.03125 -14.28125 C 23.03125 -17.6875 22.390625 -20.171875 21.109375 -21.734375 C 19.835938 -23.296875 17.988281 -24.078125 15.5625 -24.078125 C 13.132812 -24.078125 11.273438 -23.296875 9.984375 -21.734375 C 8.703125 -20.171875 8.0625 -17.6875 8.0625 -14.28125 C 8.0625 -10.863281 8.703125 -8.378906 9.984375 -6.828125 C 11.273438 -5.273438 13.132812 -4.5 15.5625 -4.5 Z M 15.5625 -4.5 "/></g></g></g><g fill="#ffffff" fill-opacity="1"><g transform="translate(160.119911, 131.143117)"><g><path d="M 22.890625 -28.5625 L 22.890625 -23.8125 L 14.65625 -23.8125 L 14.65625 0 L 9.03125 0 L 9.03125 -23.8125 L 0.78125 -23.8125 L 0.78125 -28.5625 Z M 22.890625 -28.5625 "/></g></g></g><g fill="#ffffff" fill-opacity="1"><g transform="translate(197.889644, 131.143117)"><g><path d="M 3.71875 0 L 3.71875 -28.5625 L 15.90625 -28.5625 C 17.65625 -28.5625 19.140625 -28.28125 20.359375 -27.71875 C 21.578125 -27.164062 22.5 -26.378906 23.125 -25.359375 C 23.75 -24.335938 24.0625 -23.128906 24.0625 -21.734375 C 24.0625 -20.472656 23.753906 -19.359375 23.140625 -18.390625 C 22.535156 -17.429688 21.660156 -16.660156 20.515625 -16.078125 L 20.515625 -15.671875 C 22.304688 -15.203125 23.691406 -14.347656 24.671875 -13.109375 C 25.648438 -11.867188 26.140625 -10.351562 26.140625 -8.5625 C 26.140625 -5.820312 25.3125 -3.707031 23.65625 -2.21875 C 22.007812 -0.738281 19.566406 0 16.328125 0 Z M 14.734375 -17.171875 C 17.359375 -17.171875 18.671875 -18.351562 18.671875 -20.71875 C 18.671875 -21.9375 18.34375 -22.835938 17.6875 -23.421875 C 17.039062 -24.015625 16.054688 -24.3125 14.734375 -24.3125 L 9.359375 -24.3125 L 9.359375 -17.171875 Z M 15.765625 -4.46875 C 18.878906 -4.46875 20.4375 -5.882812 20.4375 -8.71875 C 20.4375 -11.550781 18.878906 -12.96875 15.765625 -12.96875 L 9.359375 -12.96875 L 9.359375 -4.46875 Z M 15.765625 -4.46875 "/></g></g></g><g fill="#ffffff" fill-opacity="1"><g transform="translate(239.245434, 131.143117)"><g><path d="M 27.40625 0 L 21.46875 0 L 19.3125 -6.578125 L 8.375 -6.578125 L 6.234375 0 L 0.4375 0 L 10.296875 -28.5625 L 17.546875 -28.5625 Z M 13.578125 -22.59375 L 9.90625 -11.328125 L 17.75 -11.328125 L 14.0625 -22.59375 Z M 13.578125 -22.59375 "/></g></g></g><g fill="#ffffff" fill-opacity="1"><g transform="translate(282.847428, 131.143117)"><g><path d="M 9.359375 -28.5625 L 9.359375 -4.734375 L 22.1875 -4.734375 L 22.1875 0 L 3.71875 0 L 3.71875 -28.5625 Z M 9.359375 -28.5625 "/></g></g></g><g fill="#ffffff" fill-opacity="1"><g transform="translate(34.628165, 172.842176)"><g><path d="M 12.65625 0.40625 C 10.675781 0.40625 8.914062 0.160156 7.375 -0.328125 C 5.832031 -0.816406 4.546875 -1.457031 3.515625 -2.25 C 2.484375 -3.039062 1.695312 -3.910156 1.15625 -4.859375 L 4.265625 -8.65625 L 4.75 -8.65625 C 5.601562 -7.375 6.691406 -6.351562 8.015625 -5.59375 C 9.335938 -4.84375 10.882812 -4.46875 12.65625 -4.46875 C 14.164062 -4.46875 15.304688 -4.785156 16.078125 -5.421875 C 16.847656 -6.066406 17.234375 -6.945312 17.234375 -8.0625 C 17.234375 -8.738281 17.109375 -9.304688 16.859375 -9.765625 C 16.609375 -10.222656 16.195312 -10.613281 15.625 -10.9375 C 15.050781 -11.257812 14.273438 -11.539062 13.296875 -11.78125 L 9.625 -12.625 C 7.0625 -13.207031 5.148438 -14.175781 3.890625 -15.53125 C 2.640625 -16.894531 2.015625 -18.664062 2.015625 -20.84375 C 2.015625 -22.457031 2.414062 -23.875 3.21875 -25.09375 C 4.03125 -26.320312 5.207031 -27.273438 6.75 -27.953125 C 8.289062 -28.628906 10.132812 -28.96875 12.28125 -28.96875 C 14.488281 -28.96875 16.375 -28.675781 17.9375 -28.09375 C 19.507812 -27.519531 20.835938 -26.632812 21.921875 -25.4375 L 19.125 -21.609375 L 18.640625 -21.609375 C 17.828125 -22.453125 16.898438 -23.082031 15.859375 -23.5 C 14.816406 -23.925781 13.625 -24.140625 12.28125 -24.140625 C 10.738281 -24.140625 9.5625 -23.863281 8.75 -23.3125 C 7.945312 -22.769531 7.546875 -22.019531 7.546875 -21.0625 C 7.546875 -20.15625 7.828125 -19.4375 8.390625 -18.90625 C 8.953125 -18.375 9.929688 -17.957031 11.328125 -17.65625 L 15.078125 -16.875 C 17.847656 -16.289062 19.859375 -15.296875 21.109375 -13.890625 C 22.359375 -12.492188 22.984375 -10.671875 22.984375 -8.421875 C 22.984375 -6.640625 22.597656 -5.085938 21.828125 -3.765625 C 21.066406 -2.441406 19.910156 -1.414062 18.359375 -0.6875 C 16.804688 0.0390625 14.90625 0.40625 12.65625 0.40625 Z M 12.65625 0.40625 "/></g></g></g><g fill="#ffffff" fill-opacity="1"><g transform="translate(72.644121, 172.842176)"><g><path d="M 22.703125 7.109375 C 20.179688 7.109375 18.09375 6.503906 16.4375 5.296875 C 14.78125 4.085938 13.664062 2.398438 13.09375 0.234375 C 10.914062 -0.078125 9.015625 -0.816406 7.390625 -1.984375 C 5.773438 -3.148438 4.515625 -4.757812 3.609375 -6.8125 C 2.703125 -8.875 2.25 -11.363281 2.25 -14.28125 C 2.25 -17.550781 2.8125 -20.28125 3.9375 -22.46875 C 5.070312 -24.664062 6.640625 -26.296875 8.640625 -27.359375 C 10.640625 -28.429688 12.945312 -28.96875 15.5625 -28.96875 C 18.1875 -28.96875 20.492188 -28.4375 22.484375 -27.375 C 24.472656 -26.3125 26.03125 -24.679688 27.15625 -22.484375 C 28.28125 -20.285156 28.84375 -17.550781 28.84375 -14.28125 C 28.84375 -10.007812 27.925781 -6.726562 26.09375 -4.4375 C 24.269531 -2.15625 21.707031 -0.734375 18.40625 -0.171875 L 18.296875 0.21875 C 18.703125 0.90625 19.304688 1.429688 20.109375 1.796875 C 20.910156 2.171875 21.84375 2.359375 22.90625 2.359375 C 23.769531 2.359375 24.546875 2.25 25.234375 2.03125 L 25.625 2.109375 L 26.421875 6.53125 C 26.003906 6.6875 25.441406 6.820312 24.734375 6.9375 C 24.035156 7.050781 23.359375 7.109375 22.703125 7.109375 Z M 15.5625 -4.5 C 17.988281 -4.5 19.835938 -5.273438 21.109375 -6.828125 C 22.390625 -8.378906 23.03125 -10.863281 23.03125 -14.28125 C 23.03125 -17.6875 22.390625 -20.171875 21.109375 -21.734375 C 19.835938 -23.296875 17.988281 -24.078125 15.5625 -24.078125 C 13.132812 -24.078125 11.273438 -23.296875 9.984375 -21.734375 C 8.703125 -20.171875 8.0625 -17.6875 8.0625 -14.28125 C 8.0625 -10.863281 8.703125 -8.378906 9.984375 -6.828125 C 11.273438 -5.273438 13.132812 -4.5 15.5625 -4.5 Z M 15.5625 -4.5 "/></g></g></g><g fill="#ffffff" fill-opacity="1"><g transform="translate(114.312499, 172.842176)"><g><path d="M 15.140625 0.40625 C 11.203125 0.40625 8.28125 -0.523438 6.375 -2.390625 C 4.476562 -4.265625 3.53125 -7.035156 3.53125 -10.703125 L 3.53125 -28.5625 L 9.0625 -28.5625 L 9.0625 -10.75 C 9.0625 -8.664062 9.5625 -7.101562 10.5625 -6.0625 C 11.570312 -5.019531 13.097656 -4.5 15.140625 -4.5 C 19.191406 -4.5 21.21875 -6.582031 21.21875 -10.75 L 21.21875 -28.5625 L 26.734375 -28.5625 L 26.734375 -10.703125 C 26.734375 -7.035156 25.78125 -4.265625 23.875 -2.390625 C 21.976562 -0.523438 19.066406 0.40625 15.140625 0.40625 Z M 15.140625 0.40625 "/></g></g></g><g fill="#ffffff" fill-opacity="1"><g transform="translate(156.706269, 172.842176)"><g><path d="M 27.40625 0 L 21.46875 0 L 19.3125 -6.578125 L 8.375 -6.578125 L 6.234375 0 L 0.4375 0 L 10.296875 -28.5625 L 17.546875 -28.5625 Z M 13.578125 -22.59375 L 9.90625 -11.328125 L 17.75 -11.328125 L 14.0625 -22.59375 Z M 13.578125 -22.59375 "/></g></g></g><g fill="#ffffff" fill-opacity="1"><g transform="translate(198.354719, 172.842176)"><g><path d="M 3.71875 0 L 3.71875 -28.5625 L 15.171875 -28.5625 C 18.128906 -28.5625 20.359375 -27.878906 21.859375 -26.515625 C 23.367188 -25.148438 24.125 -23.269531 24.125 -20.875 C 24.125 -19.144531 23.679688 -17.726562 22.796875 -16.625 C 21.921875 -15.519531 20.613281 -14.671875 18.875 -14.078125 L 18.875 -13.671875 C 19.769531 -13.285156 20.492188 -12.707031 21.046875 -11.9375 C 21.597656 -11.164062 22.125 -10.023438 22.625 -8.515625 L 25.46875 0 L 19.671875 0 L 16.875 -8.53125 C 16.59375 -9.394531 16.269531 -10.0625 15.90625 -10.53125 C 15.550781 -11.007812 15.097656 -11.351562 14.546875 -11.5625 C 13.992188 -11.78125 13.273438 -11.890625 12.390625 -11.890625 L 9.359375 -11.890625 L 9.359375 0 Z M 14.5 -16.375 C 17.226562 -16.375 18.59375 -17.648438 18.59375 -20.203125 C 18.59375 -22.785156 17.226562 -24.078125 14.5 -24.078125 L 9.359375 -24.078125 L 9.359375 -16.375 Z M 14.5 -16.375 "/></g></g></g><g fill="#ffffff" fill-opacity="1"><g transform="translate(240.735896, 172.842176)"><g><path d="M 9.359375 -12.546875 L 9.359375 -4.734375 L 22.984375 -4.734375 L 22.984375 0 L 3.71875 0 L 3.71875 -28.5625 L 22.671875 -28.5625 L 22.671875 -23.828125 L 9.359375 -23.828125 L 9.359375 -17.15625 L 21 -17.15625 L 21 -12.546875 Z M 9.359375 -12.546875 "/></g></g></g><g fill="#ffffff" fill-opacity="1"><g transform="translate(281.994128, 172.842176)"><g><path d="M 12.65625 0.40625 C 10.675781 0.40625 8.914062 0.160156 7.375 -0.328125 C 5.832031 -0.816406 4.546875 -1.457031 3.515625 -2.25 C 2.484375 -3.039062 1.695312 -3.910156 1.15625 -4.859375 L 4.265625 -8.65625 L 4.75 -8.65625 C 5.601562 -7.375 6.691406 -6.351562 8.015625 -5.59375 C 9.335938 -4.84375 10.882812 -4.46875 12.65625 -4.46875 C 14.164062 -4.46875 15.304688 -4.785156 16.078125 -5.421875 C 16.847656 -6.066406 17.234375 -6.945312 17.234375 -8.0625 C 17.234375 -8.738281 17.109375 -9.304688 16.859375 -9.765625 C 16.609375 -10.222656 16.195312 -10.613281 15.625 -10.9375 C 15.050781 -11.257812 14.273438 -11.539062 13.296875 -11.78125 L 9.625 -12.625 C 7.0625 -13.207031 5.148438 -14.175781 3.890625 -15.53125 C 2.640625 -16.894531 2.015625 -18.664062 2.015625 -20.84375 C 2.015625 -22.457031 2.414062 -23.875 3.21875 -25.09375 C 4.03125 -26.320312 5.207031 -27.273438 6.75 -27.953125 C 8.289062 -28.628906 10.132812 -28.96875 12.28125 -28.96875 C 14.488281 -28.96875 16.375 -28.675781 17.9375 -28.09375 C 19.507812 -27.519531 20.835938 -26.632812 21.921875 -25.4375 L 19.125 -21.609375 L 18.640625 -21.609375 C 17.828125 -22.453125 16.898438 -23.082031 15.859375 -23.5 C 14.816406 -23.925781 13.625 -24.140625 12.28125 -24.140625 C 10.738281 -24.140625 9.5625 -23.863281 8.75 -23.3125 C 7.945312 -22.769531 7.546875 -22.019531 7.546875 -21.0625 C 7.546875 -20.15625 7.828125 -19.4375 8.390625 -18.90625 C 8.953125 -18.375 9.929688 -17.957031 11.328125 -17.65625 L 15.078125 -16.875 C 17.847656 -16.289062 19.859375 -15.296875 21.109375 -13.890625 C 22.359375 -12.492188 22.984375 -10.671875 22.984375 -8.421875 C 22.984375 -6.640625 22.597656 -5.085938 21.828125 -3.765625 C 21.066406 -2.441406 19.910156 -1.414062 18.359375 -0.6875 C 16.804688 0.0390625 14.90625 0.40625 12.65625 0.40625 Z M 12.65625 0.40625 "/></g></g></g></svg>