<svg xmlns="http://www.w3.org/2000/svg" xmlns:xlink="http://www.w3.org/1999/xlink" width="500" zoomAndPan="magnify" viewBox="0 0 375 374.999991" height="500" preserveAspectRatio="xMidYMid meet" version="1.0"><defs><g/><clipPath id="ddbb4b869a"><path d="M 187.5 124.707031 L 268.859375 124.707031 L 268.859375 206.058594 L 187.5 206.058594 Z M 187.5 124.707031 " clip-rule="nonzero"/></clipPath><clipPath id="8c759a9f39"><path d="M 106.140625 43.355469 L 187.5 43.355469 L 187.5 124.707031 L 106.140625 124.707031 Z M 106.140625 43.355469 " clip-rule="nonzero"/></clipPath><clipPath id="017540fe57"><path d="M 106.140625 43.378906 L 268.824219 43.378906 L 268.824219 206.058594 L 106.140625 206.058594 Z M 106.140625 43.378906 " clip-rule="nonzero"/></clipPath></defs><g clip-path="url(#ddbb4b869a)"><path fill="#7f5cf2" d="M 187.5 206.058594 L 187.5 124.472656 L 269.085938 124.472656 L 269.085938 206.058594 Z M 187.5 206.058594 " fill-opacity="1" fill-rule="nonzero"/></g><g clip-path="url(#8c759a9f39)"><path fill="#7f5cf2" d="M 106.140625 124.707031 L 106.140625 43.121094 L 187.726562 43.121094 L 187.726562 124.707031 Z M 106.140625 124.707031 " fill-opacity="1" fill-rule="nonzero"/></g><g clip-path="url(#017540fe57)"><path stroke-linecap="butt" transform="matrix(0.000000000000000024, -0.397708, 0.397678, 0.000000000000000024, 106.141433, 206.060127)" fill="none" stroke-linejoin="miter" d="M 0.00385589 -0.00203112 L 409.04654 -0.00203112 L 409.04654 409.081728 L 0.00385589 409.081728 L 0.00385589 -0.00203112 " stroke="#7f5cf2" stroke-width="22.627052" stroke-opacity="1" stroke-miterlimit="4"/></g><g fill="#7f5cf2" fill-opacity="1"><g transform="translate(15.424502, 339.757129)"><g><path d="M 21.128906 -22.726562 C 28.75 -21.707031 30.277344 -19.75 30.277344 -16.480469 L 30.277344 -16.191406 C 30.277344 -13.433594 28.316406 -10.890625 23.597656 -10.890625 L 22.871094 -10.890625 C 18.152344 -10.890625 15.972656 -13.359375 15.972656 -19.601562 L 2.179688 -19.601562 L 2.179688 -18.949219 C 2.179688 -4.71875 9.4375 1.015625 23.234375 1.015625 C 37.101562 1.015625 44.289062 -5.445312 44.289062 -16.554688 L 44.289062 -17.351562 C 44.289062 -28.460938 37.683594 -32.382812 25.339844 -34.050781 C 17.714844 -35.066406 16.554688 -36.8125 16.554688 -40.296875 L 16.554688 -40.585938 C 16.554688 -43.492188 18.515625 -45.742188 22.507812 -45.742188 L 23.234375 -45.742188 C 28.316406 -45.742188 30.132812 -42.691406 30.132812 -36.300781 L 43.925781 -36.300781 L 43.925781 -37.828125 C 43.925781 -51.550781 37.535156 -57.648438 23.234375 -57.648438 C 9.582031 -57.648438 2.542969 -50.75 2.542969 -40.222656 L 2.542969 -39.425781 C 2.542969 -28.316406 8.785156 -24.394531 21.128906 -22.726562 Z M 21.128906 -22.726562 "/></g></g></g><g fill="#7f5cf2" fill-opacity="1"><g transform="translate(64.858231, 339.757129)"><g><path d="M 24.6875 1.015625 C 25.410156 1.015625 26.210938 0.945312 26.9375 0.945312 L 29.40625 7.261719 L 39.933594 7.261719 L 36.449219 -1.378906 C 43.5625 -5.15625 46.976562 -13.285156 46.976562 -26.863281 L 46.976562 -29.769531 C 46.976562 -49.371094 39.933594 -57.648438 24.6875 -57.648438 C 9.4375 -57.648438 2.394531 -49.371094 2.394531 -29.769531 L 2.394531 -26.863281 C 2.394531 -7.261719 9.4375 1.015625 24.6875 1.015625 Z M 29.042969 -19.820312 L 18.878906 -19.820312 L 22.21875 -11.109375 C 17.496094 -12.34375 16.410156 -18.152344 16.410156 -26.863281 L 16.410156 -29.769531 C 16.410156 -39.570312 17.789062 -45.742188 24.324219 -45.742188 L 25.046875 -45.742188 C 31.582031 -45.742188 32.960938 -39.570312 32.960938 -29.769531 L 32.960938 -26.863281 C 32.960938 -21.5625 32.527344 -17.28125 31.148438 -14.519531 Z M 29.042969 -19.820312 "/></g></g></g><g fill="#7f5cf2" fill-opacity="1"><g transform="translate(117.19551, 339.757129)"><g><path d="M 24.324219 1.015625 C 40.730469 1.015625 45.378906 -6.097656 45.378906 -18.007812 L 45.378906 -56.632812 L 31.582031 -56.632812 L 31.582031 -18.367188 C 31.582031 -13.867188 30.347656 -10.890625 24.324219 -10.890625 C 18.296875 -10.890625 17.0625 -13.867188 17.0625 -18.367188 L 17.0625 -56.632812 L 3.265625 -56.632812 L 3.265625 -18.007812 C 3.265625 -6.097656 7.914062 1.015625 24.324219 1.015625 Z M 24.324219 1.015625 "/></g></g></g><g fill="#7f5cf2" fill-opacity="1"><g transform="translate(168.806902, 339.757129)"><g><path d="M 14.15625 -56.632812 L 0.652344 0 L 15.464844 0 L 17.714844 -11.472656 L 29.476562 -11.472656 L 31.800781 0 L 46.539062 0 L 33.035156 -56.632812 Z M 23.597656 -40.660156 L 27.082031 -23.378906 L 20.113281 -23.378906 Z M 23.597656 -40.660156 "/></g></g></g><g fill="#7f5cf2" fill-opacity="1"><g transform="translate(218.966518, 339.757129)"><g><path d="M 17.425781 -19.457031 L 21.273438 -19.457031 L 28.679688 0 L 43.5625 0 L 34.851562 -21.347656 C 39.859375 -23.597656 43.5625 -28.097656 43.5625 -37.320312 L 43.5625 -38.769531 C 43.5625 -54.453125 32.746094 -56.632812 23.160156 -56.632812 L 3.628906 -56.632812 L 3.628906 0 L 17.425781 0 Z M 17.425781 -31.367188 L 17.425781 -44.726562 L 23.742188 -44.726562 C 26.429688 -44.726562 29.621094 -43.707031 29.621094 -38.335938 L 29.621094 -37.753906 C 29.621094 -32.382812 26.429688 -31.367188 23.742188 -31.367188 Z M 17.425781 -31.367188 "/></g></g></g><g fill="#7f5cf2" fill-opacity="1"><g transform="translate(268.037304, 339.757129)"><g><path d="M 3.628906 -56.632812 L 3.628906 0 L 39.207031 0 L 39.207031 -11.90625 L 17.425781 -11.90625 L 17.425781 -22.941406 L 35.578125 -22.941406 L 35.578125 -34.851562 L 17.425781 -34.851562 L 17.425781 -44.726562 L 39.207031 -44.726562 L 39.207031 -56.632812 Z M 3.628906 -56.632812 "/></g></g></g><g fill="#7f5cf2" fill-opacity="1"><g transform="translate(313.115691, 339.757129)"><g><path d="M 21.128906 -22.726562 C 28.75 -21.707031 30.277344 -19.75 30.277344 -16.480469 L 30.277344 -16.191406 C 30.277344 -13.433594 28.316406 -10.890625 23.597656 -10.890625 L 22.871094 -10.890625 C 18.152344 -10.890625 15.972656 -13.359375 15.972656 -19.601562 L 2.179688 -19.601562 L 2.179688 -18.949219 C 2.179688 -4.71875 9.4375 1.015625 23.234375 1.015625 C 37.101562 1.015625 44.289062 -5.445312 44.289062 -16.554688 L 44.289062 -17.351562 C 44.289062 -28.460938 37.683594 -32.382812 25.339844 -34.050781 C 17.714844 -35.066406 16.554688 -36.8125 16.554688 -40.296875 L 16.554688 -40.585938 C 16.554688 -43.492188 18.515625 -45.742188 22.507812 -45.742188 L 23.234375 -45.742188 C 28.316406 -45.742188 30.132812 -42.691406 30.132812 -36.300781 L 43.925781 -36.300781 L 43.925781 -37.828125 C 43.925781 -51.550781 37.535156 -57.648438 23.234375 -57.648438 C 9.582031 -57.648438 2.542969 -50.75 2.542969 -40.222656 L 2.542969 -39.425781 C 2.542969 -28.316406 8.785156 -24.394531 21.128906 -22.726562 Z M 21.128906 -22.726562 "/></g></g></g><g fill="#7f5cf2" fill-opacity="1"><g transform="translate(13.761791, 271.577488)"><g><path d="M 33.796875 -23.21875 L 33.539062 -15.480469 L 33.539062 0 L 43.34375 0 L 43.34375 -40.25 L 28.742188 -40.25 L 22.960938 -17.027344 L 17.183594 -40.25 L 2.578125 -40.25 L 2.578125 0 L 12.382812 0 L 12.382812 -15.480469 L 12.125 -23.21875 L 17.90625 0 L 28.019531 0 Z M 33.796875 -23.21875 "/></g></g></g><g fill="#7f5cf2" fill-opacity="1"><g transform="translate(60.504983, 271.577488)"><g><path d="M 21.414062 -12.382812 L 32.816406 -40.25 L 22.085938 -40.25 L 16.511719 -24.457031 L 10.9375 -40.25 L 0.207031 -40.25 L 11.609375 -12.382812 L 11.609375 0 L 21.414062 0 Z M 21.414062 -12.382812 "/></g></g></g><g fill="#7f5cf2" fill-opacity="1"><g transform="translate(94.349983, 271.577488)"><g/></g></g><g fill="#7f5cf2" fill-opacity="1"><g transform="translate(105.494149, 271.577488)"><g><path d="M 2.578125 -40.25 L 2.578125 0 L 12.382812 0 L 12.382812 -16.304688 L 25.285156 -16.304688 L 25.285156 -24.769531 L 12.382812 -24.769531 L 12.382812 -31.785156 L 27.863281 -31.785156 L 27.863281 -40.25 Z M 2.578125 -40.25 "/></g></g></g><g fill="#7f5cf2" fill-opacity="1"><g transform="translate(135.211715, 271.577488)"><g><path d="M 17.542969 0.722656 C 28.378906 0.722656 33.386719 -5.160156 33.386719 -19.09375 L 33.386719 -21.15625 C 33.386719 -35.089844 28.378906 -40.96875 17.542969 -40.96875 C 6.707031 -40.96875 1.703125 -35.089844 1.703125 -21.15625 L 1.703125 -19.09375 C 1.703125 -5.160156 6.707031 0.722656 17.542969 0.722656 Z M 17.285156 -7.738281 C 12.640625 -7.738281 11.660156 -12.125 11.660156 -19.09375 L 11.660156 -21.15625 C 11.660156 -28.121094 12.640625 -32.507812 17.285156 -32.507812 L 17.800781 -32.507812 C 22.445312 -32.507812 23.425781 -28.121094 23.425781 -21.15625 L 23.425781 -19.09375 C 23.425781 -12.125 22.445312 -7.738281 17.800781 -7.738281 Z M 17.285156 -7.738281 "/></g></g></g><g fill="#7f5cf2" fill-opacity="1"><g transform="translate(171.120414, 271.577488)"><g><path d="M 17.542969 0.722656 C 28.378906 0.722656 33.386719 -5.160156 33.386719 -19.09375 L 33.386719 -21.15625 C 33.386719 -35.089844 28.378906 -40.96875 17.542969 -40.96875 C 6.707031 -40.96875 1.703125 -35.089844 1.703125 -21.15625 L 1.703125 -19.09375 C 1.703125 -5.160156 6.707031 0.722656 17.542969 0.722656 Z M 17.285156 -7.738281 C 12.640625 -7.738281 11.660156 -12.125 11.660156 -19.09375 L 11.660156 -21.15625 C 11.660156 -28.121094 12.640625 -32.507812 17.285156 -32.507812 L 17.800781 -32.507812 C 22.445312 -32.507812 23.425781 -28.121094 23.425781 -21.15625 L 23.425781 -19.09375 C 23.425781 -12.125 22.445312 -7.738281 17.800781 -7.738281 Z M 17.285156 -7.738281 "/></g></g></g><g fill="#7f5cf2" fill-opacity="1"><g transform="translate(207.029123, 271.577488)"><g><path d="M 19.609375 -31.785156 L 28.636719 -31.785156 L 28.636719 -40.25 L 0.773438 -40.25 L 0.773438 -31.785156 L 9.804688 -31.785156 L 9.804688 0 L 19.609375 0 Z M 19.609375 -31.785156 "/></g></g></g><g fill="#7f5cf2" fill-opacity="1"><g transform="translate(237.262624, 271.577488)"><g><path d="M 2.578125 -40.25 L 2.578125 0 L 17.027344 0 C 23.425781 0 30.960938 -1.394531 30.960938 -11.867188 L 30.960938 -12.898438 C 30.960938 -16.976562 29.152344 -19.402344 26.574219 -20.792969 C 28.585938 -22.1875 29.929688 -24.355469 29.929688 -27.761719 L 29.929688 -28.792969 C 29.929688 -38.90625 22.910156 -40.25 16.769531 -40.25 Z M 17.285156 -16.304688 C 18.886719 -16.304688 21.054688 -15.738281 21.054688 -12.589844 L 21.054688 -12.175781 C 21.054688 -9.03125 18.886719 -8.460938 17.285156 -8.460938 L 12.382812 -8.460938 L 12.382812 -16.304688 Z M 16.617188 -31.785156 C 18.058594 -31.785156 20.019531 -31.371094 20.019531 -28.585938 L 20.019531 -27.96875 C 20.019531 -25.179688 18.058594 -24.769531 16.617188 -24.769531 L 12.382812 -24.769531 L 12.382812 -31.785156 Z M 16.617188 -31.785156 "/></g></g></g><g fill="#7f5cf2" fill-opacity="1"><g transform="translate(271.365599, 271.577488)"><g><path d="M 10.0625 -40.25 L 0.464844 0 L 10.992188 0 L 12.589844 -8.152344 L 20.949219 -8.152344 L 22.601562 0 L 33.074219 0 L 23.476562 -40.25 Z M 16.769531 -28.894531 L 19.246094 -16.617188 L 14.292969 -16.617188 Z M 16.769531 -28.894531 "/></g></g></g><g fill="#7f5cf2" fill-opacity="1"><g transform="translate(305.726529, 271.577488)"><g><path d="M 26.574219 0 L 26.574219 -8.460938 L 12.382812 -8.460938 L 12.382812 -40.25 L 2.578125 -40.25 L 2.578125 0 Z M 26.574219 0 "/></g></g></g><g fill="#7f5cf2" fill-opacity="1"><g transform="translate(333.896325, 271.577488)"><g><path d="M 26.574219 0 L 26.574219 -8.460938 L 12.382812 -8.460938 L 12.382812 -40.25 L 2.578125 -40.25 L 2.578125 0 Z M 26.574219 0 "/></g></g></g></svg>