<svg xmlns="http://www.w3.org/2000/svg" xmlns:xlink="http://www.w3.org/1999/xlink" width="500" zoomAndPan="magnify" viewBox="0 0 375 112.499997" height="150" preserveAspectRatio="xMidYMid meet" version="1.0"><defs><g/><clipPath id="304e5a4d8a"><path d="M 52.667969 55.742188 L 95.539062 55.742188 L 95.539062 98.613281 L 52.667969 98.613281 Z M 52.667969 55.742188 " clip-rule="nonzero"/></clipPath><clipPath id="6da8147f71"><path d="M 9.792969 12.871094 L 52.667969 12.871094 L 52.667969 55.742188 L 9.792969 55.742188 Z M 9.792969 12.871094 " clip-rule="nonzero"/></clipPath><clipPath id="3de0d6c173"><path d="M 9.792969 12.886719 L 95.523438 12.886719 L 95.523438 98.609375 L 9.792969 98.609375 Z M 9.792969 12.886719 " clip-rule="nonzero"/></clipPath></defs><g clip-path="url(#304e5a4d8a)"><path fill="#7f5cf2" d="M 52.667969 98.613281 L 52.667969 55.617188 L 95.660156 55.617188 L 95.660156 98.613281 Z M 52.667969 98.613281 " fill-opacity="1" fill-rule="nonzero"/></g><g clip-path="url(#6da8147f71)"><path fill="#7f5cf2" d="M 9.792969 55.742188 L 9.792969 12.746094 L 52.789062 12.746094 L 52.789062 55.742188 Z M 9.792969 55.742188 " fill-opacity="1" fill-rule="nonzero"/></g><g clip-path="url(#3de0d6c173)"><path stroke-linecap="butt" transform="matrix(0.000000000000000039, -0.634963, 0.634963, 0.000000000000000039, 9.793078, 98.609687)" fill="none" stroke-linejoin="miter" d="M 0.000491198 -0.00017225 L 135.004587 -0.00017225 L 135.004587 135.016227 L 0.000491198 135.016227 L 0.000491198 -0.00017225 " stroke="#7f5cf2" stroke-width="7.054847" stroke-opacity="1" stroke-miterlimit="4"/></g><g fill="#7f5cf2" fill-opacity="1"><g transform="translate(114.248045, 93.670944)"><g><path d="M 15.417969 -16.582031 C 20.980469 -15.839844 22.09375 -14.410156 22.09375 -12.027344 L 22.09375 -11.816406 C 22.09375 -9.800781 20.664062 -7.945312 17.21875 -7.945312 L 16.6875 -7.945312 C 13.246094 -7.945312 11.65625 -9.75 11.65625 -14.304688 L 1.589844 -14.304688 L 1.589844 -13.828125 C 1.589844 -3.445312 6.886719 0.742188 16.953125 0.742188 C 27.074219 0.742188 32.316406 -3.972656 32.316406 -12.078125 L 32.316406 -12.664062 C 32.316406 -20.769531 27.496094 -23.628906 18.488281 -24.847656 C 12.925781 -25.589844 12.078125 -26.859375 12.078125 -29.402344 L 12.078125 -29.617188 C 12.078125 -31.734375 13.511719 -33.378906 16.425781 -33.378906 L 16.953125 -33.378906 C 20.664062 -33.378906 21.988281 -31.152344 21.988281 -26.492188 L 32.054688 -26.492188 L 32.054688 -27.601562 C 32.054688 -37.617188 27.390625 -42.066406 16.953125 -42.066406 C 6.992188 -42.066406 1.855469 -37.035156 1.855469 -29.351562 L 1.855469 -28.769531 C 1.855469 -20.664062 6.410156 -17.800781 15.417969 -16.582031 Z M 15.417969 -16.582031 "/></g></g></g><g fill="#7f5cf2" fill-opacity="1"><g transform="translate(150.32023, 93.670944)"><g><path d="M 18.011719 0.742188 C 18.542969 0.742188 19.125 0.6875 19.65625 0.6875 L 21.457031 5.296875 L 29.140625 5.296875 L 26.597656 -1.007812 C 31.789062 -3.761719 34.277344 -9.695312 34.277344 -19.601562 L 34.277344 -21.722656 C 34.277344 -36.027344 29.140625 -42.066406 18.011719 -42.066406 C 6.886719 -42.066406 1.75 -36.027344 1.75 -21.722656 L 1.75 -19.601562 C 1.75 -5.296875 6.886719 0.742188 18.011719 0.742188 Z M 21.191406 -14.464844 L 13.773438 -14.464844 L 16.210938 -8.105469 C 12.769531 -9.007812 11.972656 -13.246094 11.972656 -19.601562 L 11.972656 -21.722656 C 11.972656 -28.875 12.980469 -33.378906 17.75 -33.378906 L 18.277344 -33.378906 C 23.046875 -33.378906 24.054688 -28.875 24.054688 -21.722656 L 24.054688 -19.601562 C 24.054688 -15.734375 23.734375 -12.609375 22.730469 -10.597656 Z M 21.191406 -14.464844 "/></g></g></g><g fill="#7f5cf2" fill-opacity="1"><g transform="translate(188.511159, 93.670944)"><g><path d="M 17.75 0.742188 C 29.722656 0.742188 33.113281 -4.449219 33.113281 -13.140625 L 33.113281 -41.324219 L 23.046875 -41.324219 L 23.046875 -13.402344 C 23.046875 -10.121094 22.144531 -7.945312 17.75 -7.945312 C 13.351562 -7.945312 12.449219 -10.121094 12.449219 -13.402344 L 12.449219 -41.324219 L 2.382812 -41.324219 L 2.382812 -13.140625 C 2.382812 -4.449219 5.773438 0.742188 17.75 0.742188 Z M 17.75 0.742188 "/></g></g></g><g fill="#7f5cf2" fill-opacity="1"><g transform="translate(226.172402, 93.670944)"><g><path d="M 10.332031 -41.324219 L 0.476562 0 L 11.285156 0 L 12.925781 -8.371094 L 21.511719 -8.371094 L 23.207031 0 L 33.960938 0 L 24.105469 -41.324219 Z M 17.21875 -29.667969 L 19.761719 -17.058594 L 14.675781 -17.058594 Z M 17.21875 -29.667969 "/></g></g></g><g fill="#7f5cf2" fill-opacity="1"><g transform="translate(262.774273, 93.670944)"><g><path d="M 12.714844 -14.199219 L 15.523438 -14.199219 L 20.925781 0 L 31.789062 0 L 25.429688 -15.578125 C 29.085938 -17.21875 31.789062 -20.503906 31.789062 -27.230469 L 31.789062 -28.292969 C 31.789062 -39.734375 23.894531 -41.324219 16.902344 -41.324219 L 2.648438 -41.324219 L 2.648438 0 L 12.714844 0 Z M 12.714844 -22.886719 L 12.714844 -32.636719 L 17.324219 -32.636719 C 19.285156 -32.636719 21.617188 -31.894531 21.617188 -27.972656 L 21.617188 -27.550781 C 21.617188 -23.628906 19.285156 -22.886719 17.324219 -22.886719 Z M 12.714844 -22.886719 "/></g></g></g><g fill="#7f5cf2" fill-opacity="1"><g transform="translate(298.581616, 93.670944)"><g><path d="M 2.648438 -41.324219 L 2.648438 0 L 28.609375 0 L 28.609375 -8.6875 L 12.714844 -8.6875 L 12.714844 -16.742188 L 25.960938 -16.742188 L 25.960938 -25.429688 L 12.714844 -25.429688 L 12.714844 -32.636719 L 28.609375 -32.636719 L 28.609375 -41.324219 Z M 2.648438 -41.324219 "/></g></g></g><g fill="#7f5cf2" fill-opacity="1"><g transform="translate(331.475673, 93.670944)"><g><path d="M 15.417969 -16.582031 C 20.980469 -15.839844 22.09375 -14.410156 22.09375 -12.027344 L 22.09375 -11.816406 C 22.09375 -9.800781 20.664062 -7.945312 17.21875 -7.945312 L 16.6875 -7.945312 C 13.246094 -7.945312 11.65625 -9.75 11.65625 -14.304688 L 1.589844 -14.304688 L 1.589844 -13.828125 C 1.589844 -3.445312 6.886719 0.742188 16.953125 0.742188 C 27.074219 0.742188 32.316406 -3.972656 32.316406 -12.078125 L 32.316406 -12.664062 C 32.316406 -20.769531 27.496094 -23.628906 18.488281 -24.847656 C 12.925781 -25.589844 12.078125 -26.859375 12.078125 -29.402344 L 12.078125 -29.617188 C 12.078125 -31.734375 13.511719 -33.378906 16.425781 -33.378906 L 16.953125 -33.378906 C 20.664062 -33.378906 21.988281 -31.152344 21.988281 -26.492188 L 32.054688 -26.492188 L 32.054688 -27.601562 C 32.054688 -37.617188 27.390625 -42.066406 16.953125 -42.066406 C 6.992188 -42.066406 1.855469 -37.035156 1.855469 -29.351562 L 1.855469 -28.769531 C 1.855469 -20.664062 6.410156 -17.800781 15.417969 -16.582031 Z M 15.417969 -16.582031 "/></g></g></g><g fill="#7f5cf2" fill-opacity="1"><g transform="translate(113.036443, 43.919711)"><g><path d="M 24.664062 -16.945312 L 24.472656 -11.296875 L 24.472656 0 L 31.628906 0 L 31.628906 -29.371094 L 20.972656 -29.371094 L 16.753906 -12.425781 L 12.539062 -29.371094 L 1.882812 -29.371094 L 1.882812 0 L 9.035156 0 L 9.035156 -11.296875 L 8.847656 -16.945312 L 13.066406 0 L 20.445312 0 Z M 24.664062 -16.945312 "/></g></g></g><g fill="#7f5cf2" fill-opacity="1"><g transform="translate(147.145324, 43.919711)"><g><path d="M 15.625 -9.035156 L 23.949219 -29.371094 L 16.117188 -29.371094 L 12.050781 -17.847656 L 7.984375 -29.371094 L 0.152344 -29.371094 L 8.472656 -9.035156 L 8.472656 0 L 15.625 0 Z M 15.625 -9.035156 "/></g></g></g><g fill="#7f5cf2" fill-opacity="1"><g transform="translate(171.84229, 43.919711)"><g/></g></g><g fill="#7f5cf2" fill-opacity="1"><g transform="translate(179.974277, 43.919711)"><g><path d="M 1.882812 -29.371094 L 1.882812 0 L 9.035156 0 L 9.035156 -11.898438 L 18.449219 -11.898438 L 18.449219 -18.074219 L 9.035156 -18.074219 L 9.035156 -23.195312 L 20.332031 -23.195312 L 20.332031 -29.371094 Z M 1.882812 -29.371094 "/></g></g></g><g fill="#7f5cf2" fill-opacity="1"><g transform="translate(201.659422, 43.919711)"><g><path d="M 12.800781 0.527344 C 20.710938 0.527344 24.363281 -3.765625 24.363281 -13.929688 L 24.363281 -15.4375 C 24.363281 -25.605469 20.710938 -29.898438 12.800781 -29.898438 C 4.894531 -29.898438 1.242188 -25.605469 1.242188 -15.4375 L 1.242188 -13.929688 C 1.242188 -3.765625 4.894531 0.527344 12.800781 0.527344 Z M 12.613281 -5.648438 C 9.226562 -5.648438 8.507812 -8.847656 8.507812 -13.929688 L 8.507812 -15.4375 C 8.507812 -20.519531 9.226562 -23.722656 12.613281 -23.722656 L 12.992188 -23.722656 C 16.378906 -23.722656 17.09375 -20.519531 17.09375 -15.4375 L 17.09375 -13.929688 C 17.09375 -8.847656 16.378906 -5.648438 12.992188 -5.648438 Z M 12.613281 -5.648438 "/></g></g></g><g fill="#7f5cf2" fill-opacity="1"><g transform="translate(227.862286, 43.919711)"><g><path d="M 12.800781 0.527344 C 20.710938 0.527344 24.363281 -3.765625 24.363281 -13.929688 L 24.363281 -15.4375 C 24.363281 -25.605469 20.710938 -29.898438 12.800781 -29.898438 C 4.894531 -29.898438 1.242188 -25.605469 1.242188 -15.4375 L 1.242188 -13.929688 C 1.242188 -3.765625 4.894531 0.527344 12.800781 0.527344 Z M 12.613281 -5.648438 C 9.226562 -5.648438 8.507812 -8.847656 8.507812 -13.929688 L 8.507812 -15.4375 C 8.507812 -20.519531 9.226562 -23.722656 12.613281 -23.722656 L 12.992188 -23.722656 C 16.378906 -23.722656 17.09375 -20.519531 17.09375 -15.4375 L 17.09375 -13.929688 C 17.09375 -8.847656 16.378906 -5.648438 12.992188 -5.648438 Z M 12.613281 -5.648438 "/></g></g></g><g fill="#7f5cf2" fill-opacity="1"><g transform="translate(254.065158, 43.919711)"><g><path d="M 14.308594 -23.195312 L 20.898438 -23.195312 L 20.898438 -29.371094 L 0.566406 -29.371094 L 0.566406 -23.195312 L 7.152344 -23.195312 L 7.152344 0 L 14.308594 0 Z M 14.308594 -23.195312 "/></g></g></g><g fill="#7f5cf2" fill-opacity="1"><g transform="translate(276.126784, 43.919711)"><g><path d="M 1.882812 -29.371094 L 1.882812 0 L 12.425781 0 C 17.09375 0 22.59375 -1.015625 22.59375 -8.660156 L 22.59375 -9.414062 C 22.59375 -12.386719 21.273438 -14.15625 19.390625 -15.175781 C 20.859375 -16.191406 21.839844 -17.773438 21.839844 -20.257812 L 21.839844 -21.011719 C 21.839844 -28.390625 16.71875 -29.371094 12.238281 -29.371094 Z M 12.613281 -11.898438 C 13.78125 -11.898438 15.363281 -11.484375 15.363281 -9.1875 L 15.363281 -8.886719 C 15.363281 -6.589844 13.78125 -6.175781 12.613281 -6.175781 L 9.035156 -6.175781 L 9.035156 -11.898438 Z M 12.125 -23.195312 C 13.179688 -23.195312 14.609375 -22.894531 14.609375 -20.859375 L 14.609375 -20.40625 C 14.609375 -18.375 13.179688 -18.074219 12.125 -18.074219 L 9.035156 -18.074219 L 9.035156 -23.195312 Z M 12.125 -23.195312 "/></g></g></g><g fill="#7f5cf2" fill-opacity="1"><g transform="translate(301.011998, 43.919711)"><g><path d="M 7.34375 -29.371094 L 0.339844 0 L 8.019531 0 L 9.1875 -5.949219 L 15.289062 -5.949219 L 16.492188 0 L 24.136719 0 L 17.132812 -29.371094 Z M 12.238281 -21.085938 L 14.042969 -12.125 L 10.429688 -12.125 Z M 12.238281 -21.085938 "/></g></g></g><g fill="#7f5cf2" fill-opacity="1"><g transform="translate(326.085442, 43.919711)"><g><path d="M 19.390625 0 L 19.390625 -6.175781 L 9.035156 -6.175781 L 9.035156 -29.371094 L 1.882812 -29.371094 L 1.882812 0 Z M 19.390625 0 "/></g></g></g><g fill="#7f5cf2" fill-opacity="1"><g transform="translate(346.641168, 43.919711)"><g><path d="M 19.390625 0 L 19.390625 -6.175781 L 9.035156 -6.175781 L 9.035156 -29.371094 L 1.882812 -29.371094 L 1.882812 0 Z M 19.390625 0 "/></g></g></g></svg>